<?xml version="1.0" encoding="iso-8859-1"?>
<!-- Uploaded to: SVG Repo, www.svgrepo.com, Generator: SVG Repo Mixer Tools -->
<svg fill="#666666" height="100" width="100" version="1.1" id="Layer_1" xmlns="http://www.w3.org/2000/svg" xmlns:xlink="http://www.w3.org/1999/xlink"
	 viewBox="0 0 511.999 511.999" xml:space="preserve">
<g>
	<path d="M269.754,102.198c-1.015-0.826-2.026-1.642-3.037-2.445c-5.153-4.101-12.653-3.246-16.755,1.907
		c-4.099,5.153-3.247,12.655,1.907,16.755c0.938,0.746,1.878,1.504,2.82,2.271c2.213,1.803,4.878,2.682,7.526,2.682
		c3.46,0,6.893-1.5,9.25-4.393C275.626,113.867,274.859,106.357,269.754,102.198z"/>
	<path d="M489.03,116.731c0-3.162-1.257-6.195-3.492-8.431l-31.797-31.797c-2.237-2.236-5.269-3.492-8.431-3.492
		c-3.162,0-6.195,1.257-8.431,3.492l-20.071,20.071c-4.656,4.656-4.656,12.206,0,16.862c4.657,4.656,12.205,4.656,16.864,0
		l11.64-11.64l14.933,14.933l-60.824,60.824c-15.265-30.858-38.144-62.122-66.423-90.401
		C252.434,6.589,155.995-23.189,113.442,19.363c-2.101,2.1-23.344,24.268-23.344,24.268
		C71.69,62.039,63.54,103.843,69.331,150.132c3.773,30.156,16.861,87.111,61.929,133.951c-0.01,0.191-0.029,0.379-0.029,0.572
		v92.631L72.819,435.7c-0.013,0.013-0.026,0.026-0.039,0.041l-46.319,46.319c-4.656,4.656-4.656,12.206,0,16.862
		c2.329,2.329,5.38,3.492,8.431,3.492c3.051,0,6.104-1.165,8.431-3.492l40.428-40.427l47.481,23.716v17.865
		c0,6.585,5.339,11.924,11.924,11.924c6.584,0,11.924-5.338,11.924-11.924V482.21l47.481-23.716l40.428,40.427
		c2.329,2.329,5.38,3.492,8.431,3.492s6.102-1.165,8.431-3.492c4.656-4.656,4.656-12.206,0-16.862l-46.329-46.329
		c-0.001-0.001-0.002-0.002-0.004-0.005l-58.438-58.438v-71.933c42.662,32.671,89.502,43.091,115.864,46.389
		c9.894,1.239,19.581,1.839,28.88,1.839c34.209,0,63.149-8.133,77.622-22.606c0,0,24.691-25.061,25.263-26.276
		c19.684-21.55,22.916-56.029,9.042-97.512c-0.676-2.022-1.4-4.052-2.15-6.086l75.939-75.939
		C487.775,122.927,489.03,119.894,489.03,116.731z M131.232,455.554l-29.703-14.837l29.703-29.703V455.554z M184.782,440.717
		l-29.703,14.837v-44.54L184.782,440.717z M273.903,328.082c-27.749-3.472-80.623-15.618-122.957-57.953
		C94.196,213.378,84.669,130.638,94.972,86.448c5.468,45.695,35.969,102.175,86.263,152.469
		c51.435,51.436,109.329,82.148,155.551,86.575C320.821,329.597,298.959,331.215,273.903,328.082z M383.926,289.846
		c-14.44,14.441-41.809,16.339-75.093,5.207c-36.566-12.23-75.893-38.154-110.736-72.999
		c-34.844-34.843-60.769-74.17-72.999-110.736c-11.132-33.282-9.234-60.653,5.206-75.093c8.223-8.223,20.634-12.378,35.945-12.378
		c11.579,0,24.817,2.378,39.149,7.171c36.566,12.23,75.893,38.154,110.736,72.999c28.781,28.781,51.468,60.621,65.387,91.436
		l-22.807,22.807c-0.422-1.112-0.831-2.219-1.285-3.345c-11.133-27.571-31.333-57.474-56.878-84.204
		c-4.551-4.761-12.099-4.932-16.859-0.382c-4.76,4.55-4.932,12.098-0.382,16.859c23.509,24.597,41.977,51.82,52.006,76.656
		c2.312,5.726,4.092,11.169,5.337,16.223c-0.366,3.458,0.77,7.044,3.421,9.695c2.329,2.329,5.38,3.492,8.431,3.492
		s6.103-1.164,8.431-3.492l29.832-29.832C400.021,250.865,397.609,276.162,383.926,289.846z"/>
</g>
</svg>