<svg fill="#666666" width="100px" height="100px" viewBox="0 0 32 32" version="1.1" xmlns="http://www.w3.org/2000/svg">
<path d="M16.97 1.25c-4.86 0-9.78 3.692-9.78 10.75 0 0.414 0.336 0.75 0.75 0.75s0.75-0.336 0.75-0.75v0c0-6.355 4.292-9.25 8.28-9.25s8.28 2.895 8.28 9.25c0.005 0.122 0.007 0.265 0.007 0.409 0 0.756-0.071 1.496-0.206 2.213l0.012-0.074c-0.373 1.716-1.119 3.218-2.151 4.476l0.015-0.018c-0.197 0.238-0.416 0.455-0.631 0.67-0.357 0.338-0.68 0.704-0.97 1.097l-0.016 0.023c-0.415 0.612-0.823 1.32-1.18 2.057l-0.045 0.103c-0.256 0.47-0.499 1.025-0.696 1.601l-0.023 0.078c-0.090 0.299-0.153 0.648-0.177 1.007l-0.001 0.015c-0.016 0.257-0.056 0.496-0.119 0.726l0.006-0.025c-0.091 0.311-0.195 0.576-0.318 0.829l0.014-0.031c-0.252 0.485-0.574 0.897-0.96 1.24l-0.004 0.004c-0.805 0.687-1.821 1.149-2.938 1.279l-0.026 0.002c-0.25 0.034-0.538 0.054-0.831 0.054-0.894 0-1.745-0.181-2.52-0.509l0.042 0.016c-1.001-0.418-1.802-1.151-2.296-2.073l-0.012-0.024c-0.3-0.609-0.476-1.326-0.476-2.084 0-0.021 0-0.043 0-0.064l-0 0.003c0-0.414-0.336-0.75-0.75-0.75s-0.75 0.336-0.75 0.75v0c-0 0.017-0 0.038-0 0.058 0 1.004 0.234 1.953 0.652 2.795l-0.016-0.037c0.667 1.262 1.727 2.242 3.015 2.79l0.040 0.015c0.889 0.389 1.926 0.615 3.015 0.615 0.011 0 0.022-0 0.032-0h-0.002c0.001 0 0.003 0 0.004 0 0.368 0 0.73-0.024 1.086-0.071l-0.042 0.005c1.457-0.168 2.75-0.763 3.778-1.656l-0.009 0.007c0.528-0.47 0.965-1.029 1.29-1.656l0.015-0.032c0.144-0.288 0.28-0.629 0.386-0.983l0.012-0.047c0.088-0.294 0.15-0.636 0.173-0.988l0.001-0.014c0.017-0.264 0.058-0.51 0.123-0.747l-0.006 0.026c0.195-0.569 0.408-1.051 0.655-1.51l-0.026 0.053c0.365-0.767 0.736-1.413 1.149-2.029l-0.036 0.056c0.253-0.339 0.521-0.638 0.813-0.913l0.004-0.003c0.25-0.25 0.5-0.5 0.729-0.777 1.165-1.418 2.019-3.136 2.431-5.019l0.015-0.079c0.145-0.729 0.228-1.567 0.228-2.425 0-0.153-0.003-0.305-0.008-0.457l0.001 0.022c0-7.058-4.92-10.75-9.78-10.75zM17.175 16.774c-0.133 0.037-0.288 0.063-0.448 0.071l-0.005 0c-1.98 0.323-3.473 2.022-3.473 4.068 0 0.030 0 0.060 0.001 0.090l-0-0.005c0 2.34-2.5 2.34-2.5 0 0-0.414-0.336-0.75-0.75-0.75s-0.75 0.336-0.75 0.75v0c-0.011 0.093-0.017 0.2-0.017 0.309 0 1.552 1.225 2.819 2.761 2.886l0.006 0c1.542-0.067 2.767-1.334 2.767-2.886 0-0.109-0.006-0.216-0.018-0.322l0.001 0.013c-0-0.011-0-0.024-0-0.037 0-1.342 0.989-2.453 2.279-2.643l0.015-0.002c0.315-0.019 0.607-0.101 0.868-0.234l-0.012 0.006c0.247-0.148 0.453-0.337 0.615-0.561l0.004-0.006c0.708-0.865 1.138-1.981 1.138-3.199 0-1.094-0.347-2.108-0.937-2.936l0.011 0.015c-0.864-1.159-2.23-1.901-3.77-1.901-0.848 0-1.644 0.225-2.331 0.619l0.023-0.012c0.447-2.039 2.22-3.549 4.353-3.587l0.004-0c0.007-0 0.015-0 0.023-0 1.228 0 2.337 0.509 3.128 1.328l0.001 0.001c0.915 1.022 1.474 2.378 1.474 3.866 0 0.1-0.003 0.198-0.007 0.297l0.001-0.014c0 0.414 0.336 0.75 0.75 0.75s0.75-0.336 0.75-0.75v0c0.020-0.188 0.031-0.406 0.031-0.626 0-3.438-2.73-6.238-6.14-6.351l-0.010-0c-3.42 0.114-6.149 2.914-6.149 6.351 0 0.221 0.011 0.438 0.033 0.653l-0.002-0.027c0 0.414 0.336 0.75 0.75 0.75v0c0.347-0.003 0.636-0.244 0.713-0.568l0.001-0.005c0.034-0.027 0.082-0.021 0.112-0.054 0.601-0.687 1.479-1.119 2.458-1.119 1.062 0 2.005 0.508 2.6 1.294l0.006 0.008c0.392 0.564 0.626 1.264 0.626 2.018 0 0.871-0.312 1.669-0.831 2.288l0.005-0.006c-0.043 0.065-0.095 0.12-0.154 0.167l-0.002 0.001z"></path>
</svg>