<?xml version="1.0" encoding="utf-8"?><!-- Uploaded to: SVG Repo, www.svgrepo.com, Generator: SVG Repo Mixer Tools -->
<svg fill="#666666" width="100" height="100" viewBox="0 0 64 64" xmlns="http://www.w3.org/2000/svg" xmlns:xlink="http://www.w3.org/1999/xlink" aria-hidden="true" role="img" class="iconify iconify--emojione-monotone" preserveAspectRatio="xMidYMid meet"><path d="M50.332 22.833l1.264-1.254l.984.976l2.976-2.952a1.495 1.495 0 0 0 0-2.125l-2.679-2.656a1.522 1.522 0 0 0-2.141 0l-2.977 2.952l.984.976l-1.264 1.253a23.992 23.992 0 0 0-14.053-5.576v-1.182c2.488-.631 4.332-2.864 4.332-5.53C37.76 4.558 35.181 2 32 2c-3.182 0-5.761 2.558-5.761 5.714c0 2.667 1.843 4.898 4.332 5.53v1.182a23.99 23.99 0 0 0-14.053 5.577l-1.264-1.254l.982-.976l-2.976-2.952a1.523 1.523 0 0 0-2.141 0l-2.678 2.656a1.494 1.494 0 0 0 0 2.125l2.977 2.954l.983-.977l1.263 1.254C10.134 26.98 8 32.337 8 38.19C8 51.342 18.746 62 32 62s24-10.658 24-23.81c0-5.853-2.135-11.211-5.668-15.357M29.586 6.712v4.294a4.054 4.054 0 0 1-1.701-3.292c0-2.254 1.843-4.081 4.115-4.081c2.271 0 4.113 1.827 4.113 4.081c0 1.357-.674 2.55-1.701 3.292l.001-4.294c0-1.455-4.826-1.455-4.827 0M32 58.826c-11.487 0-20.8-9.238-20.8-20.636c0-11.396 9.313-20.634 20.8-20.634c11.486 0 20.799 9.239 20.799 20.634c0 11.398-9.313 20.636-20.799 20.636"></path><path d="M32 19.143v1.588h-.677v5.372H32v9.4c-1.496 0-2.709 1.202-2.709 2.687s1.213 2.688 2.709 2.688c.316 0 .617-.064.9-.164l10.122 8.307l-.001-.002l2.619 2.575c3.437-3.441 5.559-8.177 5.559-13.404c0-10.518-8.596-19.047-19.199-19.047m13.553 29.685l-10.848-10.66a2.666 2.666 0 0 0-.785-1.871V21.153c2.189.241 4.256.894 6.123 1.873l-1.185 2.035l1.172.671l1.185-2.032a17.332 17.332 0 0 1 5.39 5.35l-2.047 1.173l.677 1.163l2.045-1.169a16.927 16.927 0 0 1 1.969 7.306h-5.064v1.34h5.067a16.927 16.927 0 0 1-1.962 7.313l-2.055-1.178l-.677 1.163l2.051 1.176c-.328.51-.672 1.012-1.056 1.491"></path><path d="M31.323 50.279h1.353v5.372h-1.353z"></path><path d="M14.399 37.521h5.416v1.34h-5.416z"></path><path d="M22.613 23.406l1.354 2.325l1.173-.671l-1.354-2.325z"></path><path d="M19.441 30.222l-2.345-1.343l-.677 1.164l2.345 1.344z"></path><path d="M16.419 46.34l.677 1.164l2.345-1.345l-.677-1.163z"></path><path d="M22.612 52.977l1.173.671l1.354-2.327l-1.172-.672z"></path><path d="M38.859 51.321l1.354 2.327l1.174-.671l-1.356-2.328z"></path></svg>