<?xml version="1.0" encoding="iso-8859-1"?>
<!-- Uploaded to: SVG Repo, www.svgrepo.com, Generator: SVG Repo Mixer Tools -->
<svg fill="#666666" height="100" width="100" version="1.1" id="Layer_1" xmlns="http://www.w3.org/2000/svg" xmlns:xlink="http://www.w3.org/1999/xlink"
	 viewBox="0 0 512 512" xml:space="preserve">
<g>
	<g>
		<path d="M441.76,399.764l-6.72-67.203V16.568C435.04,7.432,427.608,0,418.472,0h-34.205c-9.136,0-16.568,7.432-16.568,16.568
			v51.841h-52.376v-9.086c0-23.281-18.941-42.221-42.221-42.221h-34.205c-23.281,0-42.221,18.941-42.221,42.221v9.086h-52.376
			V16.568C144.301,7.432,136.869,0,127.733,0H93.528C84.392,0,76.96,7.432,76.96,16.568v315.993l-6.72,67.203
			c-2.865,28.642,6.57,57.31,25.885,78.652C115.44,499.759,143.028,512,171.813,512h168.374c28.785,0,56.372-12.241,75.687-33.584
			C435.189,457.074,444.624,428.405,441.76,399.764z M383.733,16.568c0-0.295,0.239-0.534,0.534-0.534h34.205
			c0.295,0,0.534,0.239,0.534,0.534v155.657l-8.119-81.196c-1.29-12.894-12.035-22.619-24.995-22.619h-2.159V16.568z M212.71,59.324
			c0-14.44,11.748-26.188,26.188-26.188h34.205c14.44,0,26.188,11.748,26.188,26.188v9.086h-86.58V59.324z M92.994,16.568
			c0-0.295,0.239-0.534,0.534-0.534h34.205c0.295,0,0.534,0.239,0.534,0.534v51.841h-2.159c-12.96,0-23.705,9.725-24.995,22.62
			l-8.119,81.195V16.568z M403.986,467.658c-16.281,17.991-39.535,28.309-63.799,28.309H171.813
			c-24.264,0-47.518-10.318-63.799-28.309c-16.281-17.991-24.234-42.156-21.819-66.299l30.873-308.735
			c0.466-4.664,4.353-8.181,9.041-8.181h10.165c0.003,0,0.006,0,0.011,0s0.006,0,0.011,0h0.524v94.597
			c0,48.871,37.679,89.101,85.511,93.181v17.984c0,18.566,15.105,33.67,33.67,33.67s33.67-15.105,33.67-33.67V272.22
			c47.833-4.08,85.511-44.31,85.511-93.181v-34.205c0-4.427-3.589-8.017-8.017-8.017c-4.427,0-8.017,3.589-8.017,8.017v34.205
			c0,40.024-30.5,73.056-69.478,77.081v-17.223c0-9.136-7.432-16.568-16.568-16.568h-34.205c-9.136,0-16.568,7.432-16.568,16.568
			v17.223c-38.978-4.024-69.478-37.056-69.478-77.081V84.443h206.296v26.188c0,4.427,3.589,8.017,8.017,8.017
			c4.427,0,8.017-3.589,8.017-8.017V84.443h0.524c0.003,0,0.006,0,0.011,0s0.006,0,0.011,0h10.165c4.688,0,8.575,3.518,9.041,8.181
			l30.873,308.735C428.22,425.502,420.268,449.667,403.986,467.658z M273.637,289.67v0.534c0,9.725-7.912,17.637-17.637,17.637
			s-17.637-7.912-17.637-17.637v-0.534H273.637z M238.363,273.637v-34.739c0-0.295,0.239-0.534,0.534-0.534h34.205
			c0.295,0,0.534,0.239,0.534,0.534v34.739H238.363z"/>
	</g>
</g>
<g>
	<g>
		<path d="M341.511,342.046H170.489c-9.136,0-16.568,7.432-16.568,16.568v102.614c0,9.136,7.432,16.568,16.568,16.568h171.023
			c9.136,0,16.568-7.432,16.568-16.568V358.614C358.079,349.478,350.647,342.046,341.511,342.046z M342.046,461.228
			c0,0.295-0.239,0.534-0.534,0.534H170.489c-0.295,0-0.534-0.239-0.534-0.534V358.614c0-0.295,0.239-0.534,0.534-0.534h171.023
			c0.295,0,0.534,0.239,0.534,0.534V461.228z"/>
	</g>
</g>
<g>
	<g>
		<path d="M315.858,376.251H196.142c-4.427,0-8.017,3.589-8.017,8.017c0,4.427,3.589,8.017,8.017,8.017h119.716
			c4.427,0,8.017-3.589,8.017-8.017C323.875,379.84,320.285,376.251,315.858,376.251z"/>
	</g>
</g>
<g>
	<g>
		<path d="M256,102.614c-27.995,0-50.772,22.777-50.772,50.772s22.777,50.772,50.772,50.772s50.772-22.777,50.772-50.772
			S283.995,102.614,256,102.614z M247.983,187.181c-5.703-1.353-10.866-4.11-15.099-7.893l15.099-15.1V187.181z M247.983,141.514
			l-24.383,24.383c-1.505-3.884-2.34-8.1-2.34-12.51c0-16.396,11.421-30.165,26.722-33.795V141.514z M264.017,187.18v-22.992
			l15.099,15.099C274.882,183.07,269.719,185.827,264.017,187.18z M288.399,165.897l-24.383-24.381v-21.923
			c15.301,3.629,26.722,17.398,26.722,33.794C290.739,157.797,289.904,162.012,288.399,165.897z"/>
	</g>
</g>
</svg>