<?xml version="1.0" encoding="iso-8859-1"?>
<!-- Uploaded to: SVG Repo, www.svgrepo.com, Generator: SVG Repo Mixer Tools -->
<svg fill="#666666" height="100" width="100" version="1.1" id="Layer_1" xmlns="http://www.w3.org/2000/svg" xmlns:xlink="http://www.w3.org/1999/xlink"
	 viewBox="0 0 512 512" xml:space="preserve">
<g>
	<g>
		<path d="M378.921,178.372l-6.974-1.207h0.001c-76.826-13.295-154.735-13.297-231.562,0l-6.976,1.207
			c-23.795,4.117-41.064,24.633-41.064,48.781v57.695c0,24.148,17.27,44.663,41.064,48.781l6.975,1.208
			c18.453,3.193,37.301,5.65,56.016,7.301c14.515,1.275,28.798-3.939,39.183-14.323c5.497-5.498,12.807-8.526,20.581-8.526
			c7.775,0,15.085,3.028,20.582,8.526c9.351,9.351,21.861,14.513,34.858,14.513c1.436,0,2.88-0.064,4.324-0.192
			c18.717-1.651,37.564-4.107,56.017-7.301l6.974-1.208c23.795-4.117,41.064-24.633,41.064-48.781v-57.695
			C419.986,203.005,402.717,182.489,378.921,178.372z M375.443,313.529l-6.974,1.208c-17.897,3.096-36.177,5.479-54.331,7.081
			c-8.494,0.744-16.861-2.322-22.967-8.429c-9.351-9.351-21.782-14.5-35.006-14.5s-25.655,5.15-35.006,14.5
			c-6.105,6.105-14.476,9.172-22.966,8.429c-18.155-1.601-36.434-3.984-54.331-7.081l-6.975-1.208
			c-13.99-2.421-24.144-14.483-24.144-28.681v-57.695c0-14.198,10.154-26.26,24.143-28.681l6.976-1.207
			c74.518-12.897,150.087-12.897,224.606,0h0.001l6.973,1.207c13.99,2.421,24.144,14.483,24.144,28.681v57.695h0.001
			C399.587,299.046,389.433,311.107,375.443,313.529z"/>
	</g>
</g>
<g>
	<g>
		<path d="M501.801,195.268h-34.553v-21.652c0-17.708-12.664-32.752-30.112-35.771c-120.082-20.781-241.857-20.781-361.939,0
			c-17.448,3.019-30.112,18.063-30.112,35.771v21.652H10.199C4.566,195.268,0,199.835,0,205.467v108.552
			c0,5.632,4.566,10.199,10.199,10.199h34.884v14.166c0,17.708,12.664,32.752,30.113,35.771
			c60.041,10.391,120.505,15.585,180.97,15.585s120.928-5.195,180.97-15.585c17.448-3.019,30.112-18.063,30.112-35.771v-14.166
			h34.553c5.633,0,10.199-4.567,10.199-10.199V205.467C512,199.835,507.434,195.268,501.801,195.268z M44.918,303.82h-24.52v-88.154
			h24.52V303.82z M433.657,354.054c-117.775,20.38-237.209,20.38-354.983,0c-7.644-1.323-13.193-7.914-13.193-15.671V173.617
			c0-7.758,5.548-14.348,13.193-15.671c58.887-10.19,118.189-15.286,177.491-15.286s118.604,5.096,177.492,15.286
			c7.644,1.323,13.193,7.914,13.193,15.671v164.766h0.001C446.85,346.141,441.301,352.731,433.657,354.054z M491.602,303.82h-24.354
			v-88.154h24.354V303.82z"/>
	</g>
</g>
<g>
	<g>
		<path d="M168.029,216.181c-0.874-5.564-6.089-9.373-11.658-8.494c-3.289,0.516-6.644,1.07-9.969,1.644
			c-5.55,0.958-9.273,6.236-8.313,11.786c0.858,4.964,5.167,8.465,10.038,8.465c0.576,0,1.161-0.05,1.748-0.151
			c3.223-0.557,6.472-1.092,9.66-1.593C165.1,226.966,168.903,221.746,168.029,216.181z"/>
	</g>
</g>
<g>
	<g>
		<path d="M280.732,200.373c-27.202-1.038-54.747-0.337-81.871,2.088c-5.611,0.501-9.753,5.456-9.251,11.066
			c0.474,5.303,4.924,9.293,10.147,9.293c0.304,0,0.611-0.014,0.92-0.042c26.264-2.347,52.938-3.027,79.276-2.019
			c5.648,0.202,10.367-4.176,10.582-9.802C290.75,205.325,286.361,200.588,280.732,200.373z"/>
	</g>
</g>
</svg>